<svg width="24.000000" height="17.143066" viewBox="0 0 24 17.1431" fill="none" xmlns="http://www.w3.org/2000/svg" xmlns:xlink="http://www.w3.org/1999/xlink">
	<desc>
			Created with Pixso.
	</desc>
	<defs>
		<clipPath id="clip43_74">
			<rect id="mingcute:check-fill" width="24.000000" height="17.142857" fill="white" fill-opacity="0"/>
		</clipPath>
	</defs>
	<rect id="mingcute:check-fill" width="24.000000" height="17.142857" fill="#FFFFFF" fill-opacity="0"/>
	<g clip-path="url(#clip43_74)">
		<path id="Vector" d="M23.3643 0.65625C23.699 0.991211 23.8872 1.44531 23.8872 1.91895C23.8872 2.39209 23.699 2.84619 23.3643 3.18115L9.97974 16.5659C9.80298 16.7427 9.59302 16.8828 9.36182 16.979C9.13062 17.0747 8.88281 17.124 8.63281 17.124C8.38257 17.124 8.13477 17.0747 7.90381 16.979C7.67261 16.8828 7.46265 16.7427 7.28564 16.5659L0.635742 9.91699C0.465088 9.75244 0.329102 9.55518 0.235596 9.3374C0.141846 9.11963 0.0927734 8.88525 0.0905762 8.64795C0.088623 8.41113 0.133789 8.17578 0.223633 7.95654C0.313232 7.73682 0.446045 7.5376 0.613525 7.36963C0.78125 7.20215 0.980713 7.06934 1.2002 6.97998C1.41968 6.89014 1.65479 6.84473 1.89185 6.84668C2.12891 6.84912 2.36328 6.89795 2.58105 6.9917C2.79907 7.08545 2.99609 7.22119 3.16064 7.39209L8.63208 12.8633L20.8381 0.65625C21.0039 0.490234 21.2009 0.358887 21.4175 0.269043C21.6343 0.179199 21.8667 0.132812 22.1013 0.132812C22.3357 0.132812 22.5681 0.179199 22.7849 0.269043C23.0015 0.358887 23.1985 0.490234 23.3643 0.65625Z" fill="#FF4C34" fill-opacity="1.000000" fill-rule="evenodd"/>
	</g>
</svg>
