<svg width="156.133301" height="24.226562" viewBox="0 0 156.133 24.2266" fill="none" xmlns="http://www.w3.org/2000/svg" xmlns:xlink="http://www.w3.org/1999/xlink">
	<desc>
			Created with Pixso.
	</desc>
	<defs>
		<clipPath id="clip32_5">
			<rect id="noun-owl-1313779 1" width="18.133333" height="24.000000" transform="translate(138.000000 0.000000)" fill="white" fill-opacity="0"/>
		</clipPath>
	</defs>
	<path id="Owl NFT" d="M12.6094 24.2266Q9.4375 24.2266 6.79688 22.7578Q4.15625 21.2812 2.60156 18.6406Q1.05469 16 1.05469 12.7031Q1.05469 9.40625 2.60156 6.78125Q4.15625 4.15625 6.79688 2.6875Q9.4375 1.21875 12.6094 1.21875Q15.7734 1.21875 18.4141 2.6875Q21.0547 4.15625 22.5703 6.78125Q24.0938 9.40625 24.0938 12.7031Q24.0938 16 22.5547 18.6406Q21.0234 21.2812 18.3984 22.7578Q15.7734 24.2266 12.6094 24.2266ZM12.6094 19.2344Q15.2969 19.2344 16.9141 17.4453Q18.5312 15.6484 18.5312 12.7031Q18.5312 9.72656 16.9141 7.95312Q15.2969 6.17969 12.6094 6.17969Q9.89062 6.17969 8.27344 7.9375Q6.65625 9.69531 6.65625 12.7031Q6.65625 15.6797 8.27344 17.4609Q9.89062 19.2344 12.6094 19.2344ZM52.7692 6.14062L47.9333 24L41.8864 24L39.0739 12.4141L36.1598 24L30.1442 24L25.277 6.14062L30.7536 6.14062L33.277 18.9141L36.2848 6.14062L42.0817 6.14062L45.1208 18.8516L47.6129 6.14062L52.7692 6.14062ZM60.3171 0.320312L60.3171 24L54.8484 24L54.8484 0.320312L60.3171 0.320312ZM91.1661 24L85.6974 24L76.5411 10.1406L76.5411 24L71.0724 24L71.0724 1.53906L76.5411 1.53906L85.6974 15.4531L85.6974 1.53906L91.1661 1.53906L91.1661 24ZM109.761 1.53906L109.761 5.92188L100.605 5.92188L100.605 10.6562L107.457 10.6562L107.457 14.9141L100.605 14.9141L100.605 24L95.1364 24L95.1364 1.53906L109.761 1.53906ZM128.797 1.53906L128.797 5.92188L122.851 5.92188L122.851 24L117.375 24L117.375 5.92188L111.422 5.92188L111.422 1.53906L128.797 1.53906Z" fill="#FFFFFF" fill-opacity="1.000000" fill-rule="evenodd"/>
	<rect id="noun-owl-1313779 1" width="18.133333" height="24.000000" transform="translate(138.000000 0.000000)" fill="#FFFFFF" fill-opacity="0"/>
	<g clip-path="url(#clip32_5)">
		<path id="Vector" d="M150.872 9.09521C151.793 9.09521 152.54 8.34863 152.54 7.42773C152.54 6.50635 151.793 5.75977 150.872 5.75977C149.951 5.75977 149.204 6.50635 149.204 7.42773C149.204 8.34863 149.951 9.09521 150.872 9.09521ZM150.872 6.90479C151.16 6.90479 151.395 7.13916 151.395 7.42773C151.395 7.71582 151.16 7.9502 150.872 7.9502C150.583 7.9502 150.349 7.71582 150.349 7.42773C150.349 7.13916 150.584 6.90479 150.872 6.90479Z" fill="#FFFFFF" fill-opacity="1.000000" fill-rule="nonzero"/>
		<path id="Vector" d="M143.281 9.09521C144.202 9.09521 144.948 8.34863 144.948 7.42773C144.948 6.50635 144.202 5.75977 143.281 5.75977C142.36 5.75977 141.613 6.50635 141.613 7.42773C141.613 8.34863 142.36 9.09521 143.281 9.09521ZM143.281 6.90479C143.569 6.90479 143.803 7.13916 143.803 7.42773C143.803 7.71582 143.569 7.9502 143.281 7.9502C142.992 7.9502 142.758 7.71582 142.758 7.42773C142.758 7.13916 142.993 6.90479 143.281 6.90479Z" fill="#FFFFFF" fill-opacity="1.000000" fill-rule="nonzero"/>
		<path id="Vector" d="M148.055 9.31836L147.076 8.39502L146.097 9.31836L147.076 10.9907L148.055 9.31836Z" fill="#FFFFFF" fill-opacity="1.000000" fill-rule="nonzero"/>
		<path id="Vector" d="M154.751 3.97559C153.234 1.58838 150.569 0 147.538 0L146.617 0C143.586 0 140.921 1.58789 139.404 3.97363C138.619 4.86475 138.138 6.02979 138.138 7.30762C138.138 7.35645 138.143 7.4043 138.145 7.45312C138.099 7.81104 138.072 8.1748 138.072 8.54541L138.072 9.42334C138.046 9.52246 138.047 9.62354 138.072 9.71826L138.072 23.0806C138.047 23.1753 138.046 23.2759 138.072 23.3755L138.072 23.4272C138.072 23.7437 138.329 24 138.645 24L155.488 24C155.804 24 156.06 23.7437 156.06 23.4272C156.06 23.1113 155.804 22.855 155.488 22.855L151.138 22.855C154.08 21.2524 156.081 18.1313 156.081 14.5518L156.081 8.54492C156.081 8.17383 156.054 7.80811 156.008 7.44922C156.01 7.40137 156.015 7.35498 156.015 7.30762C156.015 6.03076 155.535 4.86621 154.751 3.97559ZM146.617 1.14502L147.538 1.14502C148.98 1.14502 150.327 1.56152 151.466 2.27881C151.3 2.26221 151.131 2.25293 150.96 2.25293C149.407 2.25293 148.007 2.95312 147.076 4.06982C146.146 2.95312 144.745 2.25293 143.192 2.25293C143.022 2.25293 142.854 2.26221 142.688 2.27881C143.828 1.56152 145.175 1.14502 146.617 1.14502ZM140.325 4.65723C141.039 3.88477 142.058 3.39795 143.193 3.39795C145.039 3.39795 146.585 4.67822 146.994 6.39941C147.016 6.48828 147.138 6.48828 147.159 6.39941C147.568 4.67822 149.114 3.39795 150.961 3.39795C152.097 3.39795 153.116 3.88574 153.831 4.65869C154.552 5.58008 154.861 6.06152 154.861 7.49902C154.764 9.49512 153.173 11.0952 151.18 11.2061L151.18 11.2173C148.953 11.2173 146.726 11.2173 144.499 11.2173C143.595 11.2173 142.674 11.189 141.825 10.8433C141.013 10.5127 139.977 9.83691 139.597 9.0166C139.392 8.57129 139.321 8.00244 139.292 7.50244C139.217 6.22217 139.797 5.50732 140.325 4.65723ZM139.217 10.4946C139.255 10.5161 139.295 10.5352 139.333 10.5571C139.95 10.9912 140.175 11.2134 140.838 11.771C141.982 12.9995 142.65 14.6348 142.65 16.397C142.65 18.8745 141.327 21.1045 139.217 22.3022L139.217 10.4946ZM154.936 14.5518C154.936 19.1304 151.211 22.855 146.633 22.855L140.479 22.855C142.537 21.3867 143.796 19.0093 143.796 16.397C143.796 14.939 143.402 13.5562 142.699 12.3623L151.18 12.3623C151.264 12.3623 151.346 12.3535 151.425 12.3364C152.854 12.2061 154.103 11.4819 154.936 10.4214L154.936 14.5518Z" fill="#FFFFFF" fill-opacity="1.000000" fill-rule="nonzero"/>
	</g>
</svg>
