<svg width="42.486084" height="21.880859" viewBox="0 0 42.4861 21.8809" fill="none" xmlns="http://www.w3.org/2000/svg" xmlns:xlink="http://www.w3.org/1999/xlink">
	<desc>
			Created with Pixso.
	</desc>
	<defs>
		<clipPath id="clip36_106">
			<rect id="noun-owl-1331350 4" width="41.798428" height="20.434788" transform="translate(0.713135 0.000000) rotate(1.999999)" fill="white" fill-opacity="0"/>
		</clipPath>
	</defs>
	<rect id="noun-owl-1331350 4" width="41.798428" height="20.434788" transform="translate(0.713135 0.000000) rotate(1.999999)" fill="#FFFFFF" fill-opacity="0"/>
	<g clip-path="url(#clip36_106)">
		<path id="Vector" d="M29.4434 1.01709C26.2407 0.905273 23.3513 2.33789 21.4631 4.64209C19.7405 2.21143 16.958 0.581055 13.7554 0.469238C12.6924 0.432129 11.6697 0.577637 10.7026 0.85498L0.695801 0.505859C0.606445 3.05859 2.21143 5.27539 4.50244 6.07129C3.93115 7.26416 3.5874 8.59033 3.53833 9.99658C3.3479 15.4502 7.61206 20.0234 13.0659 20.2139C15.4514 20.2974 17.6626 19.5239 19.4153 18.1724L21.0171 21.1421L22.7339 18.4277C24.363 19.8135 26.4517 20.6812 28.7539 20.7617C34.2075 20.9521 38.7805 16.688 38.9709 11.2339C39.02 9.82764 38.7698 8.48047 38.283 7.25049C40.624 6.6167 42.3796 4.51709 42.4688 1.96436L32.4988 1.61621C31.5398 1.2666 30.5156 1.0542 29.4434 1.01709ZM36.135 11.1353C35.9995 15.0151 32.7332 18.061 28.853 17.9258C26.6482 17.8486 24.646 16.7656 23.3618 14.9502L21.2092 11.915L18.8503 14.793C17.4424 16.5142 15.3696 17.4551 13.1648 17.3779C9.28467 17.2422 6.23877 13.9761 6.37427 10.0957C6.50977 6.21533 9.77612 3.16943 13.6562 3.30518C15.8611 3.38184 17.863 4.46973 19.1475 6.28027L21.3 9.31592L23.6589 6.43799C25.0667 4.72119 27.1396 3.77588 29.3445 3.85303C33.2246 3.98828 36.2705 7.25488 36.135 11.1353Z" fill="#FFFFFF" fill-opacity="1.000000" fill-rule="nonzero"/>
		<path id="Vector" d="M16.1243 10.4375C16.072 11.937 14.814 13.1099 13.3147 13.0576C11.8154 13.0054 10.6423 11.7471 10.6948 10.248C10.7471 8.74854 12.0049 7.57568 13.5044 7.62793C15.0037 7.68018 16.1768 8.93848 16.1243 10.4375Z" fill="#FFFFFF" fill-opacity="1.000000" fill-rule="evenodd"/>
		<path id="Vector" d="M31.8142 10.9849C31.762 12.4844 30.5039 13.6572 29.0046 13.605C27.5054 13.5527 26.3323 12.2944 26.3848 10.7954C26.437 9.2959 27.6948 8.12305 29.1943 8.17529C30.6936 8.22754 31.8667 9.48584 31.8142 10.9849Z" fill="#FFFFFF" fill-opacity="1.000000" fill-rule="evenodd"/>
	</g>
</svg>
