<svg width="16.000000" height="733.000000" viewBox="0 0 16 733" fill="none" xmlns="http://www.w3.org/2000/svg" xmlns:xlink="http://www.w3.org/1999/xlink">
	<desc>
			Created with Pixso.
	</desc>
	<defs>
		<linearGradient id="paint_linear_69_371_0" x1="7.999939" y1="-2.079435" x2="7.999939" y2="703.888062" gradientUnits="userSpaceOnUse">
			<stop stop-color="#FF4C34"/>
			<stop offset="1.000000" stop-color="#F9D423"/>
		</linearGradient>
	</defs>
	<path id="Union" d="M0 8C0 3.58154 3.58154 0 8 0C12.4185 0 16 3.58154 16 8C16 11.7329 13.4434 14.8687 9.98535 15.752C9.99512 15.833 10 15.916 10 16L10 48C10 49.1201 9.12012 50 8 50C6.87988 50 6 49.1201 6 48L6 16C6 15.916 6.00488 15.833 6.01465 15.752C2.55664 14.8687 0 11.7329 0 8ZM10 235.286L10 267.286C10 268.406 9.12012 269.286 8 269.286C6.87988 269.286 6 268.406 6 267.286L6 235.286C6 234.166 6.87988 233.286 8 233.286C9.12012 233.286 10 234.166 10 235.286ZM10 475.714L10 443.714C10 442.594 9.12012 441.714 8 441.714C6.87988 441.714 6 442.594 6 443.714L6 475.714C6 476.834 6.87988 477.714 8 477.714C9.12012 477.714 10 476.834 10 475.714ZM10 685L10 717C10 717.084 9.99512 717.167 9.98535 717.248C13.4434 718.131 16 721.267 16 725C16 729.418 12.4185 733 8 733C3.58154 733 0 729.418 0 725C0 721.267 2.55664 718.131 6.01465 717.248C6.00488 717.167 6 717.084 6 717L6 685C6 683.88 6.87988 683 8 683C9.12012 683 10 683.88 10 685Z" clip-rule="evenodd" fill="url(#paint_linear_69_371_0)" fill-opacity="1.000000" fill-rule="evenodd"/>
</svg>
